<svg width="1024" height="1024" viewBox="0 0 1024 1024" fill="none" xmlns="http://www.w3.org/2000/svg">
<g clip-path="url(#clip0_12_2)">
<path d="M511.177 156.549C472.231 152.161 363.896 96.3205 242.121 227.311L167.246 389.402L84.9656 465.1L114.586 581.115L209.209 635.42L273.387 962.896L741.562 982.643L828.779 592.635L920.11 518.582V400.922L899.54 321.933L813.968 302.185L797.512 136.802L706.181 80.0288L511.177 156.549Z" fill="white"/>
<path d="M686.708 12.8333C712.457 12.8306 737.889 18.5198 761.183 29.4937C784.477 40.4677 805.057 56.4551 821.451 76.3117C837.845 96.1684 849.647 119.403 856.012 144.354C862.377 169.304 863.149 195.353 858.271 220.637L857.522 223.931C900.949 238.417 938.916 265.821 966.342 302.475C993.769 339.129 1009.35 383.285 1010.99 429.035C1012.64 474.784 1000.27 519.945 975.546 558.474C950.822 597.003 914.921 627.062 872.647 644.63L818.438 969.438C816.5 981.093 810.49 991.684 801.478 999.325C792.466 1006.97 781.035 1011.16 769.22 1011.17H254.779C242.964 1011.16 231.533 1006.97 222.521 999.325C213.509 991.684 207.499 981.093 205.561 969.438L154.197 661.452C119.651 659.492 86.8497 645.629 61.3685 622.221C35.8873 598.812 19.2988 567.301 14.4227 533.045C9.54655 498.788 16.6838 463.9 34.6212 434.311C52.5586 404.722 80.1892 382.258 112.816 370.736L112.667 362.251C112.657 311.708 125.438 261.984 149.82 217.711C174.202 173.438 209.392 136.056 252.112 109.046C294.832 82.0352 343.693 66.2755 394.145 63.2342C444.596 60.1929 494.996 69.9689 540.652 91.6518C556.54 67.4214 578.211 47.5284 603.71 33.768C629.209 20.0076 657.733 12.813 686.708 12.8333ZM362.25 661.751H255.428L297.058 911.335H362.25V661.751ZM561.916 661.751H462.083V911.335H561.916V661.751ZM768.521 661.751H661.749V911.335H726.89L768.521 661.751ZM412.166 162.584C305.245 162.584 217.941 246.643 212.749 350.62L212.5 360.454L212.649 368.939C213.002 388.54 207.576 407.812 197.049 424.349C186.521 440.887 171.357 453.958 153.448 461.934L145.961 464.879C134.877 468.826 125.542 476.557 119.599 486.711C113.655 496.865 111.486 508.791 113.472 520.387C115.459 531.984 121.474 542.507 130.458 550.104C139.441 557.702 150.818 561.885 162.583 561.918H786.541C804.991 561.917 823.212 557.826 839.891 549.938C856.571 542.05 871.293 530.561 882.999 516.3C894.705 502.038 903.103 485.358 907.588 467.461C912.073 449.564 912.534 430.895 908.937 412.799C905.341 394.702 897.776 377.628 886.788 362.807C875.8 347.985 861.662 335.784 845.392 327.083C829.122 318.382 811.125 313.396 792.697 312.486C774.269 311.575 755.869 314.763 738.821 321.818L730.085 325.861C707.052 337.73 680.307 340.179 655.501 332.689C630.696 325.2 609.774 308.36 597.157 285.728L593.663 278.89C577.71 244.169 552.13 214.755 519.959 194.139C487.787 173.523 450.376 162.571 412.166 162.584ZM686.708 112.667C673.768 112.664 661.048 116.015 649.789 122.392C638.53 128.77 629.116 137.956 622.465 149.056C648.24 174.433 669.21 204.265 684.361 237.109C706.952 225.501 731.365 217.852 756.541 214.497C760.917 203.155 762.466 190.919 761.054 178.844C759.642 166.77 755.311 155.221 748.436 145.195C741.56 135.169 732.347 126.968 721.592 121.301C710.837 115.634 698.864 112.67 686.708 112.667Z" fill="#19768A"/>
</g>
<defs>
<clipPath id="clip0_12_2">
<rect width="1024" height="1024" fill="white"/>
</clipPath>
</defs>
</svg>
